<svg aria-hidden="true" xmlns="http://www.w3.org/2000/svg" width="36.61" height="29.05" viewBox="0 0 36.61 29.05">
    <g>
        <path d="M11.46,19.33a.93.93,0,0,0-1.8-.51,14.27,14.27,0,0,0,.22,8.36H5.76V18.79a.93.93,0,0,0-1.87,0v8.46a1.82,1.82,0,0,0,1.83,1.8H9.94a1.85,1.85,0,0,0,1.51-.77,1.75,1.75,0,0,0,.23-1.6A12.38,12.38,0,0,1,11.46,19.33Z" fill="#333"/>
        <path d="M32.21,1a.93.93,0,1,0-1.32,1.32,13.11,13.11,0,0,1,0,18.57.93.93,0,1,0,1.32,1.32A15,15,0,0,0,32.21,1Z" fill="#333"/>
        <path d="M29.57,3.65A.93.93,0,1,0,28.25,5a9.38,9.38,0,0,1,0,13.29.93.93,0,1,0,1.32,1.32,11.25,11.25,0,0,0,0-15.93Z" fill="#333"/>
        <path d="M26.93,6.29a.93.93,0,1,0-1.32,1.32,5.66,5.66,0,0,1,0,8,.93.93,0,1,0,1.32,1.32,7.52,7.52,0,0,0,0-10.65Z" fill="#333"/>
        <path d="M25.41,11.62a3.8,3.8,0,0,0-2.87-3.68V2.08a2,2,0,0,0-2-2.08H20.2a1.93,1.93,0,0,0-1.41.61,10.55,10.55,0,0,0-.89,1.16c-1.3,1.85-3.25,4.63-7.58,4.63H1.64A1.67,1.67,0,0,0,0,8.1v7a1.67,1.67,0,0,0,1.64,1.7h8.61c4.39,0,6.35,2.77,7.65,4.63a10.61,10.61,0,0,0,.89,1.16,1.93,1.93,0,0,0,1.41.61h.36a2,2,0,0,0,2-2.08V15.3A3.8,3.8,0,0,0,25.41,11.62ZM1.87,8.27H7.55V15H1.87ZM20.68,21.16c0,.14-.08.21-.12.21H20.2a.07.07,0,0,1-.05,0,9.76,9.76,0,0,1-.71-.95C18.1,18.49,15.63,15,10.34,15H9.41V8.27h.92c5.29,0,7.77-3.53,9.1-5.43a9.67,9.67,0,0,1,.71-.95.07.07,0,0,1,.05,0h.36s.12.07.12.21V21.16ZM23.51,12l0,.09a1.92,1.92,0,0,1-.09.29v0a2,2,0,0,1-.16.29l0,.07A2,2,0,0,1,23,13l0,0a2,2,0,0,1-.25.21l-.07,0-.1.06V9.93l.1.06.07,0a2,2,0,0,1,.25.21l0,0a2,2,0,0,1,.18.22l0,.07a1.92,1.92,0,0,1,.16.29v0a1.93,1.93,0,0,1,.09.29l0,.09a1.73,1.73,0,0,1,0,.69Z" fill="#333"/>
    </g>
</svg>