<svg xmlns="http://www.w3.org/2000/svg" width="36" height="36" viewBox="0 0 36 36" aria-hidden="true">
    <g>
        <g>
            <path d="M29.14,12.94,22.6,6.4,27,2A1.57,1.57,0,0,1,29.2,2l4.33,4.33a1.57,1.57,0,0,1,0,2.21ZM25.55,6.4,29.14,10l2.54-2.54L28.09,3.86Z" fill="#333"/>
            <path d="M1.74,35.11A1.31,1.31,0,0,1,.5,33.38l2.4-7.06,6.32,6.32L2.16,35A1.33,1.33,0,0,1,1.74,35.11Zm.74-1.06h0Zm-1-.34h0ZM3.8,30.16,3,32.56l2.4-.82Z" fill="#333"/>
            <path d="M10.79,31.29,4.25,24.75,21.57,7.44,28.11,14ZM7.2,24.75l3.59,3.59L25.16,14l-3.59-3.59Z" fill="#333"/>
        </g>
        <g>
            <path d="M8.78.65a1.57,1.57,0,0,0-2.21,0L.65,6.57a1.57,1.57,0,0,0,0,2.21L9,17.08a1,1,0,0,0,1.47-1.48L2.5,7.67,7.67,2.5l.74.74L4.92,6.73A1,1,0,1,0,6.4,8.21L9.89,4.71,11,5.82l-2,2a1,1,0,0,0,1.47,1.48l2-2,1.2,1.2L10.18,12a1,1,0,1,0,1.48,1.47L15.15,10l.34.34A1,1,0,1,0,17,8.84Z" fill="#333"/>
            <path d="M35.35,27.22l-8.7-8.7A1,1,0,1,0,25.17,20l.4.4-3.49,3.49a1,1,0,1,0,1.47,1.48L27,21.87l1.45,1.45-2,2A1,1,0,1,0,28,26.79l2-2,1.32,1.32L27.79,29.6a1,1,0,1,0,1.47,1.47l3.49-3.49.74.74L28.33,33.5l-8.12-8.12a1,1,0,1,0-1.47,1.48l8.49,8.49a1.57,1.57,0,0,0,2.21,0l5.91-5.91A1.57,1.57,0,0,0,35.35,27.22Z" fill="#333"/>
        </g>
    </g>
</svg>