<svg xmlns="http://www.w3.org/2000/svg" width="36" height="36" viewBox="0 0 36 36">
    <title>Content icon</title>
    <g fill="#333">
        <path d="M16.95,33l-.83-.9a1.13,1.13,0,0,0-.82-.36h0a1.13,1.13,0,0,0-.83.37l-.82.9V27.68h-2v7a1.32,1.32,0,0,0,.83,1.24A1.24,1.24,0,0,0,13,36a1.26,1.26,0,0,0,.93-.41l1.4-1.52,1.4,1.52a1.25,1.25,0,0,0,1.38.33,1.32,1.32,0,0,0,.83-1.24v-7h-2Z"/>
        <path d="M28,26.48a3.41,3.41,0,0,0,1.95-3.07V4.4A3.41,3.41,0,0,0,26.53,1H10.18V1A4.82,4.82,0,0,0,5.37,5.8h0V29.66a4.82,4.82,0,0,0,4.81,4.81,1,1,0,1,0,0-2,2.85,2.85,0,0,1-2.67-1.87h2.67a1,1,0,1,0,0-2H7.51a2.85,2.85,0,0,1,2.67-1.87H26v1.87H20.48a1,1,0,1,0,0,2H26v1.87H20.48a1,1,0,1,0,0,2h8.47a1,1,0,1,0,0-2H28ZM7.33,25.79V5.84A2.85,2.85,0,0,1,10.18,3V3H26.53A1.44,1.44,0,0,1,28,4.4v19a1.44,1.44,0,0,1-1.44,1.44H10.18A4.78,4.78,0,0,0,7.33,25.79Z"/>
    </g>
</svg>