<svg xmlns="http://www.w3.org/2000/svg" width="36" height="36" viewBox="0 0 36 36">
    <title>Examples Icon</title>
    <g fill="#333">
        <path d="M23.48,28.63A1.34,1.34,0,0,0,22.14,30v1.32H3.21V4.71H14.62v5a2,2,0,0,0,2,2h5.47v0a1.34,1.34,0,0,0,2.68,0V9.74L16.87,2.38,16.46,2H2.58a2,2,0,0,0-2,2V31.92a2,2,0,0,0,2,2H22.77a2,2,0,0,0,2-2V30A1.34,1.34,0,0,0,23.48,28.63ZM17.3,6.44l2.88,2.67H17.3Z" />
        <path d="M6.34,10.33h4.11a1.34,1.34,0,0,0,0-2.68H6.34a1.34,1.34,0,0,0,0,2.68Z" />
        <path d="M16.36,14.74A1.34,1.34,0,0,0,15,13.4H6.34a1.34,1.34,0,0,0,0,2.68H15A1.34,1.34,0,0,0,16.36,14.74Z" />
        <path d="M6.36,21.83H13a1.34,1.34,0,0,0,0-2.68H6.36a1.34,1.34,0,0,0,0,2.68Z" />
        <path d="M6.34,27.59h8.28a1.34,1.34,0,1,0,0-2.68H6.34a1.34,1.34,0,0,0,0,2.68Z" />
        <path d="M35.08,31.69,27.75,24.3a6.56,6.56,0,0,0-.84-8.17,6.46,6.46,0,0,0-9.18,0,6.56,6.56,0,0,0,0,9.22,6.45,6.45,0,0,0,8.13.85l7.31,7.37a1.34,1.34,0,0,0,1.9-1.89ZM25,23.46a3.78,3.78,0,0,1-5.37,0,3.87,3.87,0,0,1,0-5.44A3.78,3.78,0,0,1,25,18,3.87,3.87,0,0,1,25,23.46Z" />
    </g>
</svg>