
<svg aria-hidden="true" width="241px" height="221px" viewBox="0 0 241 221" version="1.1" xmlns="http://www.w3.org/2000/svg" xmlns:xlink="http://www.w3.org/1999/xlink">
    <g id="Page-1" stroke="none" stroke-width="1" fill="none" fill-rule="evenodd">
        <g id="Rivet-Home-Concept" transform="translate(-830.000000, -974.000000)">
            <g id="Group-2" transform="translate(830.000000, 975.000000)">
                <polyline id="Fill-92" fill="#F4661E" points="240.555262 32.1115847 237.339925 47.2963934 233.6498 43.6038798 227.122968 50.1323497 222.038529 45.0537158 228.571372 38.525847 225.368055 35.3268306 240.555262 32.1115847"></polyline>
                <path d="M218.162095,48.4667213 L212.2002,48.4667213 C207.638628,48.4667213 207.638628,42.6745902 203.071047,42.6745902 C198.509476,42.6745902 198.509476,48.5436612 193.947905,48.5436612 C189.385733,48.5436612 189.385733,42.6619672 184.82296,42.6619672 C180.259586,42.6619672 180.259586,48.4667213 175.696212,48.4667213 L167.678304,48.4667213 M160.466334,48.4667213 L155.658354,48.4667213" id="Stroke-93" stroke="#231F20" stroke-width="2.99999982" stroke-linejoin="round"></path>
                <polyline id="Fill-94" fill="#31C0D8" points="0.0468778055 125.601967 3.25981047 140.787377 6.95173815 137.094863 13.4785711 143.623333 18.558202 138.544699 12.0289651 132.016831 15.2286758 128.817814 0.0468778055 125.601967"></polyline>
                <path d="M21.6359102,142.237213 L27.4265212,142.237213 C31.9898953,142.237213 31.9898953,136.305027 36.5532693,136.305027 C41.1154414,136.305027 41.1154414,142.104372 45.6776135,142.104372 C50.2403865,142.104372 50.2403865,136.327268 54.8025586,136.327268 C59.3659327,136.327268 59.3659327,142.237213 63.9293067,142.237213 L72.1197007,142.237213 M78.7306733,142.237213 L83.5386534,142.237213" id="Stroke-95" stroke="#231F20" stroke-width="2.99999982" stroke-linejoin="round"></path>
                <polygon id="Fill-96" fill="#FFD248" points="31.2518703 219.47765 221.167082 219.47765 221.167082 184.614262 31.2518703 184.614262"></polygon>
                <path d="M31.2518703,184.914809 L221.167082,184.914809" id="Stroke-97" stroke="#231F20" stroke-width="2.99999982" stroke-linejoin="round"></path>
                <polygon id="Fill-98" fill="#D1D3D4" points="44.344 51.0033333 195.2701 51.0033333 195.2701 33.4736612 44.344 33.4736612"></polygon>
                <polygon id="Fill-99" fill="#FFFFFF" points="44.344 184.423115 195.2701 184.423115 195.2701 51.0033333 44.344 51.0033333"></polygon>
                <polygon id="Stroke-100" stroke="#231F20" stroke-width="2.91599983" stroke-linejoin="round" points="195.2701 51.0033333 195.2701 33.4736612 44.344 33.4736612 44.344 184.423115 195.2701 184.423115 195.2701 51.0033333 44.344 51.0033333"></polygon>
                <path d="M56.8459501,42.3199454 C56.8459501,44.0679235 55.429399,45.4853005 53.6816983,45.4853005 C51.9333965,45.4853005 50.5168454,44.0679235 50.5168454,42.3199454 C50.5168454,40.5719672 51.9333965,39.1551913 53.6816983,39.1551913 C55.429399,39.1551913 56.8459501,40.5719672 56.8459501,42.3199454" id="Fill-101" fill="#A7A9AC"></path>
                <path d="M66.5833117,42.3199454 C66.5833117,44.0679235 65.1661596,45.4853005 63.4184589,45.4853005 C61.6707581,45.4853005 60.254207,44.0679235 60.254207,42.3199454 C60.254207,40.5719672 61.6707581,39.1551913 63.4184589,39.1551913 C65.1661596,39.1551913 66.5833117,40.5719672 66.5833117,42.3199454" id="Fill-102" fill="#A7A9AC"></path>
                <polygon id="Fill-103" fill="#A7A9AC" points="183.905237 45.1607104 188.713217 45.1607104 188.713217 39.1497814 183.905237 39.1497814"></polygon>
                <polygon id="Fill-104" fill="#31C0D8" points="70.9435486 172.806995 82.5866733 172.806995 82.5866733 155.108415 70.9435486 155.108415"></polygon>
                <polyline id="Fill-105" fill="#F1F2F2" points="77.1530549 149.520055 82.5866733 149.520055 82.5866733 155.108415 70.9435486 155.108415 70.9435486 149.520055 77.1530549 149.520055"></polyline>
                <polyline id="Fill-106" fill="#E6E7E8" points="76.7654115 4.20103825 82.5866733 21.9002186 70.9435486 21.9002186 76.7654115 4.20103825"></polyline>
                <polygon id="Fill-107" fill="#FFD248" points="77.1530549 149.520055 82.5866733 149.520055 82.5866733 21.9002186 77.1530549 21.9002186"></polygon>
                <polygon id="Fill-108" fill="#FFD248" points="70.9435486 149.520055 77.1530549 149.520055 77.1530549 21.9002186 70.9435486 21.9002186"></polygon>
                <path d="M70.9435486,149.520055 L70.9435486,21.9002186 L70.9435486,149.520055 Z M82.5866733,21.9002186 L82.5866733,149.520055 L82.5866733,21.9002186 Z M77.1530549,149.985902 L77.1530549,22.3660656 L77.1530549,149.985902 Z M82.5866733,155.108415 L82.5866733,149.520055 L70.9435486,149.520055 L70.9435486,172.806995 L82.5866733,172.806995 L82.5866733,155.108415 L70.9435486,155.108415 L82.5866733,155.108415 Z M70.9435486,21.9002186 L76.7654115,4.20103825 L82.5866733,21.9002186 L70.9435486,21.9002186 Z" id="Stroke-109" stroke="#231F20" stroke-width="2.91599983" stroke-linejoin="round"></path>
                <polygon id="Fill-110" fill="#F4661E" points="94.9834489 157.642022 118.352035 157.642022 118.352035 5.71879781 94.9834489 5.71879781"></polygon>
                <polygon id="Stroke-111" stroke="#231F20" stroke-width="2.91599983" stroke-linejoin="round" points="94.9834489 157.642022 118.352035 157.642022 118.352035 5.71879781 94.9834489 5.71879781"></polygon>
                <path d="M95.5586035,81.5268306 L102.169576,81.5268306 M95.5586035,91.1443169 L106.376559,91.1443169 M95.5586035,101.362896 L102.169576,101.362896 M95.5586035,110.980383 L106.376559,110.980383 M95.5586035,120.597869 L102.169576,120.597869 M95.5586035,130.215355 L106.376559,130.215355 M95.5586035,139.832842 L102.169576,139.832842 M95.5586035,150.051421 L106.376559,150.051421 M95.5586035,71.9093443 L106.376559,71.9093443 M95.5586035,62.2918579 L102.169576,62.2918579 M95.5586035,52.6743716 L106.376559,52.6743716 M95.5586035,42.4557923 L102.169576,42.4557923 M95.5586035,32.838306 L106.376559,32.838306 M95.5586035,23.2208197 L102.169576,23.2208197 M95.5586035,13.6033333 L106.376559,13.6033333" id="Stroke-112" stroke="#231F20" stroke-width="2.99999982" stroke-linejoin="round"></path>
                <polygon id="Fill-113" fill="#D1D3D4" points="52.1335287 77.297541 203.059027 77.297541 203.059027 59.7678689 52.1335287 59.7678689"></polygon>
                <polygon id="Fill-114" fill="#FFFFFF" points="52.1335287 210.717322 203.059027 210.717322 203.059027 77.297541 52.1335287 77.297541"></polygon>
                <polygon id="Stroke-115" stroke="#231F20" stroke-width="2.91599983" stroke-linejoin="round" points="203.059027 77.297541 203.059027 59.7678689 52.1335287 59.7678689 52.1335287 210.717322 203.059027 210.717322 203.059027 77.297541 52.1335287 77.297541"></polygon>
                <path d="M64.6354788,68.6147541 C64.6354788,70.3627322 63.2189277,71.7795082 61.4712269,71.7795082 C59.7235262,71.7795082 58.3063741,70.3627322 58.3063741,68.6147541 C58.3063741,66.866776 59.7235262,65.4493989 61.4712269,65.4493989 C63.2189277,65.4493989 64.6354788,66.866776 64.6354788,68.6147541" id="Fill-116" fill="#A7A9AC"></path>
                <path d="M74.3728404,68.6147541 C74.3728404,70.3627322 72.9556883,71.7795082 71.2079875,71.7795082 C69.4602868,71.7795082 68.0437357,70.3627322 68.0437357,68.6147541 C68.0437357,66.866776 69.4602868,65.4493989 71.2079875,65.4493989 C72.9556883,65.4493989 74.3728404,66.866776 74.3728404,68.6147541" id="Fill-117" fill="#A7A9AC"></path>
                <polygon id="Fill-118" fill="#A7A9AC" points="191.718204 71.6087978 196.526185 71.6087978 196.526185 65.5978689 191.718204 65.5978689"></polygon>
                <polygon id="Fill-119" fill="#BCBEC0" points="112.987531 133.521366 227.177057 133.521366 227.177057 92.6470492 112.987531 92.6470492"></polygon>
                <polygon id="Fill-120" fill="#FFD248" points="61.3017456 170.789126 89.5486284 170.789126 89.5486284 142.53776 61.3017456 142.53776"></polygon>
                <polygon id="Fill-121" fill="#D1D3D4" points="96.159601 170.789126 124.406484 170.789126 124.406484 142.53776 96.159601 142.53776"></polygon>
                <polygon id="Fill-122" fill="#F4661E" points="131.618454 170.789126 159.865337 170.789126 159.865337 142.53776 131.618454 142.53776"></polygon>
                <polygon id="Fill-123" fill="#D1D3D4" points="165.875312 170.789126 193.521197 170.789126 193.521197 142.53776 165.875312 142.53776"></polygon>
                <path d="M85.2460873,156.829344 C85.2460873,162.03 81.0330948,166.243661 75.8344663,166.243661 C70.6346359,166.243661 66.4216434,162.03 66.4216434,156.829344 C66.4216434,151.630492 70.6346359,147.41623 75.8344663,147.41623 C81.0330948,147.41623 85.2460873,151.630492 85.2460873,156.829344" id="Fill-124" fill="#FDC147"></path>
                <path d="M120.299868,157.803716 C120.299868,163.00377 116.086274,167.218033 110.887646,167.218033 C105.688416,167.218033 101.474823,163.00377 101.474823,157.803716 C101.474823,152.604262 105.688416,148.39 110.887646,148.39 C116.086274,148.39 120.299868,152.604262 120.299868,157.803716" id="Fill-125" fill="#BCBEC0"></path>
                <path d="M155.353047,156.829344 C155.353047,162.03 151.140055,166.243661 145.941426,166.243661 C140.741596,166.243661 136.528603,162.03 136.528603,156.829344 C136.528603,151.630492 140.741596,147.41623 145.941426,147.41623 C151.140055,147.41623 155.353047,151.630492 155.353047,156.829344" id="Fill-126" fill="#F47921"></path>
                <path d="M189.433212,156.829344 C189.433212,162.03 185.219618,166.243661 180.02099,166.243661 C174.821761,166.243661 170.608167,162.03 170.608167,156.829344 C170.608167,151.630492 174.821761,147.41623 180.02099,147.41623 C185.219618,147.41623 189.433212,151.630492 189.433212,156.829344" id="Fill-127" fill="#BCBEC0"></path>
                <path d="M75.425187,152.155246 L75.425187,161.171639 M70.9177057,156.663443 L79.9326683,156.663443 M110.283042,153.357432 L110.283042,161.772732 M106.376559,157.865628 L114.790524,157.865628 M145.741895,152.155246 L145.741895,161.171639 M141.234414,156.663443 L150.249377,156.663443 M179.397756,152.155246 L179.397756,161.171639 M175.491272,156.663443 L183.905237,156.663443" id="Stroke-128" stroke="#231F20" stroke-width="2.99999982" stroke-linejoin="round"></path>
                <polygon id="Fill-129" fill="#31C0D8" points="58.2967581 133.521366 106.977556 133.521366 106.977556 92.6470492 58.2967581 92.6470492"></polygon>
                <polygon id="Fill-130" fill="#F1F2F2" points="61.3017456 199.040492 169.481297 199.040492 169.481297 178.603333 61.3017456 178.603333"></polygon>
                <polygon id="Fill-131" fill="#BCBEC0" points="169.481297 199.040492 193.521197 199.040492 193.521197 178.603333 169.481297 178.603333"></polygon>
                <path d="M169.180798,178.603333 L169.180798,199.040492" id="Stroke-132" stroke="#231F20" stroke-width="2.99999982" stroke-linejoin="round"></path>
                <path d="M181.010232,183.565956 C183.405207,183.585191 185.324192,185.532732 185.313975,187.919071 C185.294743,190.30541 183.357127,192.223497 180.961551,192.21388 C178.575591,192.204262 176.657808,190.256721 176.667424,187.870383 C176.687257,185.484044 178.625474,183.55694 181.010232,183.565956" id="Fill-133" fill="#FFFFFF"></path>
                <path d="M185.313975,187.919071 C185.294743,190.30541 183.357127,192.223497 180.961551,192.21388 C178.575591,192.204262 176.657808,190.256721 176.667424,187.870383 C176.687257,185.484044 178.625474,183.55694 181.010232,183.565956 C183.405207,183.585191 185.324192,185.532732 185.313975,187.919071 Z M183.586107,191.343497 L187.350756,195.108743 L183.586107,191.343497 Z" id="Stroke-134" stroke="#231F20" stroke-width="2.91599983" stroke-linejoin="round"></path>
                <path d="M70.9177057,188.521366 L75.1246883,188.521366 M81.1346633,188.521366 L84.7406484,188.521366 M90.7506234,188.521366 L94.3566085,188.521366 M100.366584,188.521366 L103.972569,188.521366 M109.982544,188.521366 L114.189526,188.521366 M119.598504,188.521366 L123.805486,188.521366 M129.815461,188.521366 L133.421446,188.521366 M70.3167082,103.166175 L73.9226933,103.166175 M76.9276808,103.166175 L81.1346633,103.166175 M83.5386534,103.166175 L87.7456359,103.166175 M76.9276808,122.401148 L81.1346633,122.401148 M83.5386534,122.401148 L87.7456359,122.401148 M90.7506234,103.166175 L94.3566085,103.166175 M70.3167082,107.974918 L73.9226933,107.974918 M90.7506234,107.974918 L94.3566085,107.974918 M70.3167082,112.783661 L73.9226933,112.783661 M90.7506234,112.783661 L94.3566085,112.783661 M70.3167082,117.592404 L73.9226933,117.592404 M90.7506234,117.592404 L94.3566085,117.592404 M70.3167082,122.401148 L73.9226933,122.401148 M90.7506234,122.401148 L94.3566085,122.401148" id="Stroke-135" stroke="#231F20" stroke-width="2.99999982" stroke-linejoin="round"></path>
                <polygon id="Fill-136" fill="#FFFFFF" points="78.1296758 117.291858 86.5436409 117.291858 86.5436409 108.275464 78.1296758 108.275464"></polygon>
                <path d="M168.279302,125.406612 L173.087282,125.406612 L168.279302,125.406612 Z M158.663342,125.406612 L163.471322,125.406612 L158.663342,125.406612 Z M178.496259,125.406612 L183.304239,125.406612 L178.496259,125.406612 Z M127.110973,25.0240984 L151.75187,25.0240984 L151.75187,0.980382514 L127.110973,0.980382514 L127.110973,25.0240984 Z" id="Stroke-137" stroke="#231F20" stroke-width="2.99999982" stroke-linejoin="round"></path>
                <path d="M127.115781,0.849945355 L151.458584,25.1960109 M127.115781,25.1960109 L151.458584,0.849945355" id="Stroke-138" stroke="#231F20" stroke-width="2.91599983" stroke-linejoin="round"></path>
                <polygon id="Stroke-139" stroke="#231F20" stroke-width="2.99999982" stroke-linejoin="round" points="161.36783 25.0240984 185.407731 25.0240984 185.407731 0.980382514 161.36783 0.980382514"></polygon>
                <path d="M161.195344,0.849945355 L185.538147,25.1960109 M161.195344,25.1960109 L185.538147,0.849945355" id="Stroke-140" stroke="#231F20" stroke-width="2.91599983" stroke-linejoin="round"></path>
                <polygon id="Stroke-141" stroke="#231F20" stroke-width="2.99999982" stroke-linejoin="round" points="11.1184539 77.9202732 35.7593516 77.9202732 35.7593516 53.2754645 11.1184539 53.2754645"></polygon>
                <path d="M11.2440623,53.4383607 L35.5868653,77.7850273 M11.2440623,77.7850273 L35.5868653,53.4383607" id="Stroke-142" stroke="#231F20" stroke-width="2.91599983" stroke-linejoin="round"></path>
                <polygon id="Stroke-143" stroke="#231F20" stroke-width="2.99999982" stroke-linejoin="round" points="11.1184539 112.783661 35.7593516 112.783661 35.7593516 88.7399454 11.1184539 88.7399454"></polygon>
                <path d="M11.2440623,88.4977049 L35.5868653,112.84377 M11.2440623,112.84377 L35.5868653,88.4977049" id="Stroke-144" stroke="#231F20" stroke-width="2.91599983" stroke-linejoin="round"></path>
                <polygon id="Stroke-145" stroke="#231F20" stroke-width="2.99999982" stroke-linejoin="round" points="211.851621 84.5322951 235.891521 84.5322951 235.891521 60.4885792 211.851621 60.4885792"></polygon>
                <path d="M211.827581,60.2553552 L236.17399,84.6020219 M211.827581,84.6020219 L236.17399,60.2553552" id="Stroke-146" stroke="#231F20" stroke-width="2.91599983" stroke-linejoin="round"></path>
                <polygon id="Stroke-147" stroke="#231F20" stroke-width="2.99999982" stroke-linejoin="round" points="211.851621 118.79459 235.891521 118.79459 235.891521 94.1497814 211.851621 94.1497814"></polygon>
                <path d="M211.827581,94.3403279 L236.17399,118.686995 M211.827581,118.686995 L236.17399,94.3403279" id="Stroke-148" stroke="#231F20" stroke-width="2.91599983" stroke-linejoin="round"></path>
                <path d="M201.334165,19.6142623 L205.541147,19.6142623 M209.147132,19.6142623 L213.354115,19.6142623 M216.9601,19.6142623 L221.167082,19.6142623 M37.2618454,21.417541 L40.8678304,21.417541 M45.074813,21.417541 L48.680798,21.417541 M52.8877805,21.417541 L56.4937656,21.417541 M213.354115,147.647049 L216.9601,147.647049 M221.167082,147.647049 L224.773067,147.647049 M228.98005,147.647049 L232.586035,147.647049 M13.8229426,156.663443 L17.4289277,156.663443 M21.6359102,156.663443 L25.2418953,156.663443 M29.4488778,156.663443 L33.0548628,156.663443 M66.1097257,3.98584699 L87.7456359,3.98584699" id="Stroke-149" stroke="#231F20" stroke-width="2.99999982" stroke-linejoin="round"></path>
                <polygon id="Fill-150" fill="#A7A9AC" points="63.1047382 7.29185792 70.3167082 7.29185792 70.3167082 0.0787431694 63.1047382 0.0787431694"></polygon>
                <polygon id="Fill-151" fill="#A7A9AC" points="82.9376559 7.29185792 89.5486284 7.29185792 89.5486284 0.0787431694 82.9376559 0.0787431694"></polygon>
            </g>
        </g>
    </g>
</svg>
