
<svg role="img" width="307px" height="229px" viewBox="0 0 307 229" version="1.1" xmlns="http://www.w3.org/2000/svg" xmlns:xlink="http://www.w3.org/1999/xlink">
    <g id="Page-1" stroke="none" stroke-width="1" fill="none" fill-rule="evenodd">
        <g id="Rivet-Home-Concept" transform="translate(-238.000000, -967.000000)">
            <g id="Group-3" transform="translate(238.000000, 967.000000)">
                <polyline id="Fill-48" fill="#F4661E" points="0.265027344 112.6992 3.47053906 127.857 7.15453906 124.1712 13.6662969 130.6878 18.7341953 125.6184 12.2194395 119.1024 15.4117598 115.9092 0.265027344 112.6992"></polyline>
                <path d="M22.7851562,129.3786 L28.5527988,129.3786 C33.1056328,129.3786 33.1056328,123.42 37.6584668,123.42 C42.2101016,123.42 42.2101016,129.1902 46.7623359,129.1902 C51.3139707,129.1902 51.3139707,123.4518 55.8656055,123.4518 C60.4184395,123.4518 60.4184395,129.3786 64.9712734,129.3786 L73.1523438,129.3786 M76.1503906,129.3786 L80.9472656,129.3786" id="Stroke-49" stroke="#231F20" stroke-width="2.99999982" stroke-linejoin="round"></path>
                <polyline id="Fill-50" fill="#F4661E" points="292.674732 67.983 289.468621 83.1408 285.785221 79.4544 279.273463 85.9716 274.205564 80.9022 280.719721 74.3862 277.5274 71.193 292.674732 67.983"></polyline>
                <path d="M270.423828,84.3786 L264.386361,84.3786 C259.833527,84.3786 259.833527,78.5622 255.280693,78.5622 C250.729059,78.5622 250.729059,84.4026 246.177424,84.4026 C241.625189,84.4026 241.625189,78.558 237.073555,78.558 C232.520721,78.558 232.520721,84.3786 227.967887,84.3786 L220.056641,84.3786 M217.058594,84.3786 L212.261719,84.3786" id="Stroke-51" stroke="#231F20" stroke-width="2.99999982" stroke-linejoin="round"></path>
                <path d="M242.644525,45.0414 C242.644525,43.9674 242.260176,43.5828 241.186875,43.5828 L51.7522852,43.5828 C50.679584,43.5828 49.3238672,43.9674 49.3238672,45.0414 L49.3238672,157.3182 L242.644525,157.3182 L242.644525,45.0414" id="Fill-52" fill="#6D6E71"></path>
                <polygon id="Fill-53" fill="#F1F2F2" points="60.5605469 157.8786 231.449219 157.8786 231.449219 54.0786 60.5605469 54.0786"></polygon>
                <polygon id="Fill-54" fill="#BCBEC0" points="121.720703 219.0786 169.089844 219.0786 169.089844 193.8786 121.720703 193.8786"></polygon>
                <polygon id="Fill-55" fill="#E6E7E8" points="49.3238672 193.2852 242.644525 193.2852 242.644525 157.3182 49.3238672 157.3182"></polygon>
                <path d="M240.701191,43.5786 L51.2666016,43.5786 C50.1933008,43.5786 49.4677734,44.4534 49.4677734,45.5274 L49.4677734,193.5786 L242.541992,193.5786 L242.541992,45.5274 C242.541992,44.4534 241.774492,43.5786 240.701191,43.5786 Z" id="Stroke-56" stroke="#231F20" stroke-width="2.99999982" stroke-linejoin="round"></path>
                <polygon id="Fill-57" fill="#E6E7E8" points="113.925781 226.8786 176.884766 226.8786 176.884766 219.0786 113.925781 219.0786"></polygon>
                <path d="M104.332031,227.1786 L187.078125,227.1786" id="Stroke-58" stroke="#231F20" stroke-width="2.99999982" stroke-linejoin="round"></path>
                <polygon id="Fill-59" fill="#31C0D8" points="244.307242 109.467 259.109799 109.467 259.109799 97.8438 244.307242 97.8438"></polygon>
                <polyline id="Fill-60" fill="#F1F2F2" points="236.054818 104.0424 236.054818 109.467 244.307242 109.467 244.307242 97.8438 236.054818 97.8438 236.054818 104.0424"></polyline>
                <polyline id="Fill-61" fill="#E6E7E8" points="29.943293 103.6554 47.5981914 109.467 47.5981914 97.8438 29.943293 103.6554"></polyline>
                <polygon id="Fill-62" fill="#FFD248" points="47.5981914 109.467 236.054818 109.467 236.054818 104.0424 47.5981914 104.0424"></polygon>
                <polygon id="Fill-63" fill="#FFD248" points="47.5981914 104.0424 236.054818 104.0424 236.054818 97.8438 47.5981914 97.8438"></polygon>
                <path d="M236.054818,97.8438 L47.5981914,97.8438 L236.054818,97.8438 Z M47.5981914,109.467 L236.054818,109.467 L47.5981914,109.467 Z M236.74317,104.0424 L48.286543,104.0424 L236.74317,104.0424 Z M244.307242,109.467 L236.054818,109.467 L236.054818,97.8438 L259.109799,97.8438 L259.109799,109.467 L244.307242,109.467 L244.307242,97.8438 L244.307242,109.467 Z M47.5981914,97.8438 L29.943293,103.6554 L47.5981914,109.467 L47.5981914,97.8438 Z" id="Stroke-64" stroke="#231F20" stroke-width="2.91599983" stroke-linejoin="round"></path>
                <polygon id="Fill-65" fill="#FFD248" points="73.6104453 33.8622 218.357947 33.8622 218.357947 23.169 73.6104453 23.169"></polygon>
                <polygon id="Fill-66" fill="#FFFFFF" points="73.6104453 157.3182 218.357947 157.3182 218.357947 33.8622 73.6104453 33.8622"></polygon>
                <path d="M218.357947,33.8622 L218.357947,23.169 L73.6104453,23.169 L73.6104453,33.8622 M218.357947,157.3182 L218.357947,33.8622 L73.6104453,33.8622 L73.6104453,157.3182" id="Stroke-67" stroke="#231F20" stroke-width="2.91599983" stroke-linejoin="round"></path>
                <path d="M79.7480469,27.9786 L84.5449219,27.9786 M87.5429688,27.9786 L92.3398438,27.9786 M208.064453,27.9786 L212.861328,27.9786" id="Stroke-68" stroke="#231F20" stroke-width="2.99999982" stroke-linejoin="round"></path>
                <polygon id="Fill-69" fill="#31C0D8" points="79.1484375 81.0786 212.261719 81.0786 212.261719 38.4786 79.1484375 38.4786"></polygon>
                <path d="M143.306641,74.7786 L148.103516,74.7786 M133.113281,74.7786 L138.509766,74.7786 M152.900391,74.7786 L157.697266,74.7786" id="Stroke-70" stroke="#231F20" stroke-width="2.99999982" stroke-linejoin="round"></path>
                <polygon id="Fill-71" fill="#BCBEC0" points="79.1484375 115.2786 143.306641 115.2786 143.306641 84.6786 79.1484375 84.6786"></polygon>
                <polygon id="Fill-72" fill="#BCBEC0" points="148.103516 115.2786 212.261719 115.2786 212.261719 84.6786 148.103516 84.6786"></polygon>
                <path d="M79.1484375,121.5786 L126.517578,121.5786 M79.1484375,131.1786 L139.109375,131.1786 M79.1484375,140.7786 L139.109375,140.7786 M79.1484375,150.3786 L139.109375,150.3786 M132.513672,121.5786 L139.109375,121.5786 M148.103516,121.5786 L195.472656,121.5786 M148.103516,131.1786 L195.472656,131.1786 M148.103516,140.7786 L195.472656,140.7786 M148.103516,150.3786 L195.472656,150.3786 M201.46875,121.5786 L208.064453,121.5786" id="Stroke-73" stroke="#231F20" stroke-width="2.99999982" stroke-linejoin="round"></path>
                <path d="M259.807145,133.0152 L259.807145,144.681 L202.491084,144.681 L202.491084,133.0152 C202.491084,131.4012 203.792236,130.0986 205.405186,130.0986 L256.892443,130.0986 C258.505393,130.0986 259.807145,131.4012 259.807145,133.0152" id="Fill-74" fill="#BCBEC0"></path>
                <path d="M259.807145,208.839 L259.807145,223.4202 C259.807145,225.0342 258.505393,226.3368 256.892443,226.3368 L205.405186,226.3368 C203.792236,226.3368 202.491084,225.0342 202.491084,223.4202 L202.491084,208.839 L259.807145,208.839" id="Fill-75" fill="#BCBEC0"></path>
                <polygon id="Fill-76" fill="#F1F2F2" points="202.491084 208.839 259.807145 208.839 259.807145 144.681 202.491084 144.681"></polygon>
                <path d="M202.491084,208.839 L202.491084,223.4202 C202.491084,225.0342 203.792236,226.3368 205.405186,226.3368 L256.892443,226.3368 C258.505393,226.3368 259.807145,225.0342 259.807145,223.4202 L259.807145,208.839 M259.807145,144.681 L259.807145,133.0152 C259.807145,131.4012 258.505393,130.0986 256.892443,130.0986 L205.405186,130.0986 C203.792236,130.0986 202.491084,131.4012 202.491084,133.0152 L202.491084,144.681 M259.807145,208.839 L259.807145,144.681 M202.491084,144.681 L202.491084,208.839" id="Stroke-77" stroke="#231F20" stroke-width="2.91599983" stroke-linejoin="round"></path>
                <polygon id="Fill-78" fill="#31C0D8" points="206.265625 164.4786 256.033203 164.4786 256.033203 147.0786 206.265625 147.0786"></polygon>
                <polygon id="Fill-79" fill="#BCBEC0" points="206.265625 192.0786 256.033203 192.0786 256.033203 166.2786 206.265625 166.2786"></polygon>
                <path d="M228.451172,159.3786 L233.248047,159.3786 M220.65625,159.3786 L225.453125,159.3786 M236.246094,159.3786 L241.042969,159.3786 M206.265625,197.1786 L237.445312,197.1786 M206.265625,203.1786 L256.033203,203.1786 M241.042969,197.1786 L248.238281,197.1786 M251.835938,59.1786 L256.033203,59.1786 M259.630859,59.1786 L263.828125,59.1786 M267.425781,59.1786 L271.023438,59.1786 M18.5878906,148.5786 L22.7851562,148.5786 M26.3828125,148.5786 L30.5800781,148.5786 M34.1777344,148.5786 L38.375,148.5786 M35.9765625,206.1786 L40.1738281,206.1786 M43.171875,206.1786 L46.7695312,206.1786 M49.7675781,206.1786 L53.9648438,206.1786 M43.171875,225.3786 L46.7695312,225.3786 M49.7675781,225.3786 L53.9648438,225.3786 M56.3632812,206.1786 L60.5605469,206.1786 M35.9765625,210.9786 L40.1738281,210.9786 M56.3632812,210.9786 L60.5605469,210.9786 M35.9765625,215.7786 L40.1738281,215.7786 M56.3632812,215.7786 L60.5605469,215.7786 M35.9765625,220.5786 L40.1738281,220.5786 M56.3632812,220.5786 L60.5605469,220.5786 M35.9765625,225.3786 L40.1738281,225.3786 M56.3632812,225.3786 L60.5605469,225.3786" id="Stroke-80" stroke="#231F20" stroke-width="2.99999982" stroke-linejoin="round"></path>
                <polygon id="Fill-81" fill="#FFD248" points="43.7714844 220.2786 52.765625 220.2786 52.765625 211.2786 43.7714844 211.2786"></polygon>
                <path d="M231.449219,10.5786 L235.646484,10.5786 M238.044922,10.5786 L242.242188,10.5786 M245.240234,10.5786 L248.837891,10.5786 M238.044922,29.7786 L242.242188,29.7786 M245.240234,29.7786 L248.837891,29.7786 M251.835938,10.5786 L256.033203,10.5786 M231.449219,15.3786 L235.646484,15.3786 M251.835938,15.3786 L256.033203,15.3786 M231.449219,20.1786 L235.646484,20.1786 M251.835938,20.1786 L256.033203,20.1786 M231.449219,24.9786 L235.646484,24.9786 M251.835938,24.9786 L256.033203,24.9786 M231.449219,29.7786 L235.646484,29.7786 M251.835938,29.7786 L256.033203,29.7786" id="Stroke-82" stroke="#231F20" stroke-width="2.99999982" stroke-linejoin="round"></path>
                <polygon id="Fill-83" fill="#FFD248" points="239.244141 24.6786 248.238281 24.6786 248.238281 15.6786 239.244141 15.6786"></polygon>
                <path d="M271.023438,117.3786 L276.419922,117.3786 M278.818359,117.3786 L289.611328,117.3786 M271.023438,123.9786 L276.419922,123.9786 M278.818359,123.9786 L286.013672,123.9786 M34.1777344,75.3786 L29.3808594,75.3786 M26.3828125,75.3786 L15.5898438,75.3786 M34.1777344,68.7786 L29.3808594,68.7786 M26.3828125,68.7786 L19.7871094,68.7786" id="Stroke-84" stroke="#231F20" stroke-width="2.99999982" stroke-linejoin="round"></path>
                <path d="M135.204119,6.2724 C135.204119,8.4834 133.413086,10.2756 131.203525,10.2756 C128.993965,10.2756 127.202932,8.4834 127.202932,6.2724 C127.202932,4.0614 128.993965,2.2692 131.203525,2.2692 C133.413086,2.2692 135.204119,4.0614 135.204119,6.2724" id="Fill-85" fill="#BCBEC0"></path>
                <path d="M292.580594,157.9188 C292.580594,160.1298 290.789561,161.922 288.58,161.922 C286.370439,161.922 284.579406,160.1298 284.579406,157.9188 C284.579406,155.7078 286.370439,153.9156 288.58,153.9156 C290.789561,153.9156 292.580594,155.7078 292.580594,157.9188" id="Fill-86" fill="#BCBEC0"></path>
                <path d="M29.3149023,170.556 C29.3149023,172.767 27.5238691,174.5592 25.3143086,174.5592 C23.104748,174.5592 21.3137148,172.767 21.3137148,170.556 C21.3137148,168.345 23.104748,166.5528 25.3143086,166.5528 C27.5238691,166.5528 29.3149023,168.345 29.3149023,170.556" id="Fill-87" fill="#FFD248"></path>
                <path d="M37.0864395,30.5748 C37.0864395,32.7858 35.2954063,34.578 33.0858457,34.578 C30.8762852,34.578 29.085252,32.7858 29.085252,30.5748 C29.085252,28.3638 30.8762852,26.5716 33.0858457,26.5716 C35.2954063,26.5716 37.0864395,28.3638 37.0864395,30.5748" id="Fill-88" fill="#31C0D8"></path>
                <path d="M285.780424,41.268 C285.780424,43.4784 283.989391,45.2706 281.77983,45.2706 C279.57027,45.2706 277.779236,43.4784 277.779236,41.268 C277.779236,39.057 279.57027,37.2642 281.77983,37.2642 C283.989391,37.2642 285.780424,39.057 285.780424,41.268" id="Fill-89" fill="#FFD248"></path>
                <path d="M162.793945,0.0786 L162.793945,4.2786 M162.793945,7.8786 L162.793945,12.0786 M156.498047,6.3786 L160.695312,6.3786 M165.492188,6.3786 L169.089844,6.3786 M57.2626953,13.8786 L57.2626953,18.0786 M57.2626953,21.6786 L57.2626953,25.8786 M50.9667969,20.1786 L54.5644531,20.1786 M59.3613281,20.1786 L63.5585938,20.1786 M282.71582,183.0786 L282.71582,186.6786 M282.71582,190.8786 L282.71582,194.4786 M276.419922,189.3786 L280.017578,189.3786 M284.814453,189.3786 L289.011719,189.3786 M13.4912109,186.0786 L13.4912109,189.6786 M13.4912109,193.8786 L13.4912109,197.4786 M7.1953125,192.3786 L10.7929688,192.3786 M15.5898438,192.3786 L19.7871094,192.3786 M85.4443359,205.2786 L85.4443359,209.4786 M85.4443359,213.0786 L85.4443359,217.2786 M79.1484375,211.5786 L82.7460938,211.5786 M87.5429688,211.5786 L91.7402344,211.5786 M300.704102,90.6786 L300.704102,94.8786 M300.704102,98.4786 L300.704102,102.6786 M294.408203,96.9786 L298.605469,96.9786 M303.402344,96.9786 L307,96.9786" id="Stroke-90" stroke="#231F20" stroke-width="2.99999982" stroke-linejoin="round"></path>
                <path d="M235.434822,217.9902 C235.434822,220.0926 233.732531,221.7948 231.6321,221.7948 C229.531668,221.7948 227.829377,220.0926 227.829377,217.9902 C227.829377,215.8896 229.531668,214.1856 231.6321,214.1856 C233.732531,214.1856 235.434822,215.8896 235.434822,217.9902" id="Fill-91" fill="#AAACAE"></path>
            </g>
        </g>
    </g>
</svg>
